<svg xmlns="http://www.w3.org/2000/svg" viewBox="0 0 100 100"><title>address</title><path d="M49.95,91.81C26.3,91.22,8.91,73.1,8.27,51.18A41.76,41.76,0,0,1,46.63,8.48c2.31-.21,4.65-.22,7-.29,1.56,0,1.61.81.94,1.84C53,12.44,52,15.71,48,14.67a.9.9,0,0,0-1.07.77c0,.41.3,1.16.6,1.23,3.73.9,2.65,4,2.25,6a11.57,11.57,0,0,0,1.72,9.54c2.7,4.24,4.48,9.21,7.26,13.55a3.49,3.49,0,0,1,0,3.74c-1,1.93-2,3.8-3,5.74-2.1,4.34-.61,7,4.21,7.62.82.11,1.66.06,2.49.13a4.82,4.82,0,0,1,4.72,3.7c.86,3,1.85,6,2.81,9,.79,2.46,1,2.54,2.82.94A33.52,33.52,0,0,0,83.67,59.2c1.17-4.82,4.61-8,7-11.9.15-.24.54-.33.82-.49a6.42,6.42,0,0,1,.25,1.3,46.4,46.4,0,0,1-3,17.07C83,79.29,69.71,91.21,49.95,91.81ZM14.84,50.22c-.45,2.12.56,4.3,2.88,6.18,1.82,1.47,3.51,3,5.84,3.63S28,62.3,27.8,64.94c-.37,5,2.54,8.87,3.74,13.32,1,3.54,4.73,3.75,7.57,4.9,2.6,1,2.72-1.77,4-2.78A13.14,13.14,0,0,1,45,78.82c2.65-1.33,3.63-3.7,4.3-6.37,1-4.09.94-4.35-3.12-5.52-2.28-.66-4.49-1.32-5.26-4-.43-1.52-1.84-1.85-3.16-2a32.48,32.48,0,0,0-5-.27c-3.08.09-6.08.16-7.51-3.39-.55-1.38-1.87-1.08-3-1.3-1.31-.26-1.48-1.28-1-2.29C21.81,52.45,22.4,51,24,51a5.08,5.08,0,0,1,4.8,3,15.75,15.75,0,0,1,.69,1.83,11.17,11.17,0,0,0,.76-1.74,24.27,24.27,0,0,0,.52-2.94c.46-3.72,2.3-6,6.2-6.61a12.42,12.42,0,0,0,5.43-2.4c2.92-2.1,3.27-4,1.31-6.73S39,32,36.37,33.66c-1.11.72-2.07,1.68-3.14,2.46-.8.58-1.69,1.28-2.71.63a3,3,0,0,1-1.28-3.06,10.9,10.9,0,0,1,3.46-5.94C34,26.51,35.3,25.62,37,27.22a4.55,4.55,0,0,0,3.76.92c.64,0,1.52-.15,1.82-.57.52-.73,0-1.55-.48-2.26-3.09-4.75-10.51-5.74-15-1.76C19.42,30.43,15.34,39.09,14.84,50.22Z" style="fill:#070707"/><path d="M74.9,8.3c13.31.5,19.41,13.61,15.36,22.34-3.74,8.07-8.83,15.18-14.2,22.16-.82,1.07-1.49,1-2.31,0-5.38-7-10.46-14.08-14.21-22.15C55.38,21.69,62,8.72,74.9,8.3Zm-.1,22.86A6.32,6.32,0,0,0,81,25.38a6.14,6.14,0,1,0-12.28-.22A6.28,6.28,0,0,0,74.8,31.17Z" style="fill:#070707"/></svg>