<svg xmlns="http://www.w3.org/2000/svg" viewBox="0 0 100 100"><title>alarm</title><path d="M12.22,32.8,5.8,29.27c2.61-8.39,11.13-17.2,21.58-22.18L31.27,14C43.55,8.43,55.78,8.22,68.19,14l3.9-7c10,4.69,17.07,12.08,22.1,21.93l-7,3.91c4.75,10.84,5.7,21.8,1.61,33A40.6,40.6,0,0,1,73.08,85.88a42,42,0,0,1-48.53-1.31C12.53,75.41,2.15,56.63,12.22,32.8ZM50.38,18.21c-19-.13-33.62,13.88-33.78,32.39-.16,19.25,13.92,33.84,32.76,33.92S82.8,70.47,82.91,51.87C83,32.91,68.93,18.34,50.38,18.21Z" style="fill:#070707"/><path d="M65.14,60.64l-6.39,6.22L46.81,54.3a3.61,3.61,0,0,1-1.23-2.59c0-6.92,0-13.84,0-21h8.34c0,4.53.26,9-.08,13.37-.3,4,.76,7,3.92,9.51C60.36,55.67,62.58,58.17,65.14,60.64Z" style="fill:#070707"/></svg>