<svg xmlns="http://www.w3.org/2000/svg" viewBox="0 0 100 100"><title>angle-left</title><rect y="-100" width="100" height="100" transform="translate(100 0) rotate(-90)" style="fill:none"/><path d="M72.82,84.17c-.15,1.29-1,1.86-1.72,2.53-4.74,4.63-3.34,4.29-7.42.25Q46.5,69.9,29.43,52.73c-2.9-2.9-3-2.43-.16-5.31Q46.93,29.78,64.58,12.13c2.8-2.8,2.3-3.06,5.32-.07l.35.35c3.35,3.41,3.39,2.76.11,6q-13.93,14-27.87,27.9c-4.11,4.13-4.16,3.1-.16,7.11Q56.4,67.63,70.54,81.72C71.36,82.54,72.12,83.42,72.82,84.17Z" style="fill:#080808"/></svg>