<svg xmlns="http://www.w3.org/2000/svg" viewBox="0 0 100 100"><title>angle-right</title><rect width="100" height="100" transform="translate(0 100) rotate(-90)" style="fill:none"/><path d="M27.18,15.83c.15-1.29,1-1.86,1.72-2.53,4.74-4.63,3.34-4.29,7.42-.25q17.19,17,34.26,34.22c2.9,2.9,3,2.43.16,5.31Q53.07,70.22,35.42,87.87c-2.8,2.8-2.3,3.06-5.32.07l-.35-.35c-3.35-3.41-3.39-2.76-.11-6q13.93-14,27.87-27.9c4.11-4.13,4.16-3.1.16-7.11Q43.6,32.37,29.46,18.28C28.64,17.46,27.88,16.58,27.18,15.83Z" style="fill:#080808"/></svg>