<svg xmlns="http://www.w3.org/2000/svg" viewBox="0 0 100 100"><title>article-abstract</title><path d="M16.81,49.87c0-11,0-22,0-33,0-5.88,2.5-8.61,8.42-8.7,10.16-.16,20.32,0,30.48-.08a5.61,5.61,0,0,1,4.4,1.79Q70.64,20.57,81.33,31.08a6.13,6.13,0,0,1,1.87,4.87c-.05,15.49,0,31,0,46.47,0,5.85-2.85,9.24-8.69,9.31q-25,.33-50,0c-5.3-.06-7.66-3-7.68-8.38C16.78,72.19,16.81,61,16.81,49.87Zm8.36,33H74.61V41.65H50V17.08H25.17Zm43.54-49.9-10.3-10.3v10.3Z" style="fill:#070707"/><path d="M66.6,58H46.11v-7.7H66.6Z" style="fill:#070707"/><path d="M45.89,74.58V67.14H66.64v7.44Z" style="fill:#070707"/><path d="M33.49,58a22.13,22.13,0,0,1-.1-7.73h8.15v7.52C39,58.56,36.29,58.17,33.49,58Z" style="fill:#070707"/><path d="M41.69,66.78v7.78c-2.67.84-5.39.38-8.32.31V67.29C36,66.31,38.64,67.06,41.69,66.78Z" style="fill:#070707"/></svg>