<svg xmlns="http://www.w3.org/2000/svg" viewBox="0 0 100 100"><title>building</title><path d="M70.85,91.6V71.39H54.26V91.65c-9.06,0-17.81.33-26.52-.14-4.23-.23-6.82-3.49-6.83-7.9-.08-22.3-.12-44.6,0-66.89,0-5.07,3.32-8.22,8.73-8.31q20.21-.33,40.44,0c6,.1,9,3.45,9,9.63q.11,32.2,0,64.4C79.08,88.13,77,90.32,70.85,91.6ZM29.57,45.74H45.45V38H29.35C29.14,40.68,28.83,43.11,29.57,45.74Zm24.69,0H70.48a20.73,20.73,0,0,0,0-7.67H54.26Zm-8.79,16.7V54.61h-16a20.73,20.73,0,0,0,.05,7.78Zm25.2-7.71H54.36V62.3H70.68ZM29.19,21.22c.13,3-.55,5.46.43,7.78h16V21.22Zm41.48,0H54.25c0,2.8-.5,5.36.32,7.73h16.1ZM29.26,79H45.6V71.35H29.26Z" style="fill:#040404"/></svg>