<svg xmlns="http://www.w3.org/2000/svg" viewBox="0 0 100 100"><title>calendar</title><path d="M50,91.93q-12.74,0-25.47,0a30.45,30.45,0,0,1-4.48-.19,8.39,8.39,0,0,1-7.52-7.48,26.54,26.54,0,0,1-.16-4q0-26.22,0-52.44c0-.67,0-1.33,0-2,.3-5.85,3.19-8.71,9.05-9,3.46-.15,3.46-.15,3.54-3.52.12-5.62.12-5.55,5.89-5.21,1.71.1,2.3.66,2.35,2.34,0,2-.9,4.39.53,5.75s4.12.59,6.23.61c7.82.07,15.65.06,23.47,0,3.25,0,3.22-.09,3.37-3.32.08-1.63-.75-3.77.49-4.76,1.7-1.36,4.14-.44,6.26-.56a1.19,1.19,0,0,1,1.37,1.1,8.5,8.5,0,0,1,.08,1c.07,2-.51,4.36.38,5.85,1.06,1.77,3.7.36,5.6.81a8,8,0,0,1,6,5.39,14,14,0,0,1,.61,4.91q0,27,0,53.94c0,.5,0,1,0,1.5-.35,5.69-3.4,8.86-9.12,9.16-3.49.19-7,0-10.49.05Zm-.25-8.74c8.66,0,17.31,0,26,0,3.3,0,3.37-.06,3.38-3.14,0-13,0-26,0-39,0-2.74.47-3.44-3.18-3.43q-26,.08-51.94,0c-2.26,0-3.23.39-3.2,3,.14,13.15,0,26.3.07,39.45,0,3,.08,3.09,3.41,3.1C32.78,83.21,41.27,83.19,49.76,83.19Z" style="fill:#0c0c0c"/><path d="M50,64.54c0-2.66,0-5.31,0-8,0-1.59.38-2.42,2.21-2.39,5.48.09,11,.08,16.44,0,1.79,0,2.27.78,2.25,2.41q-.08,8.22,0,16.44c0,1.5-.58,2.06-2,2-5.65,0-11.29,0-16.94,0-1.57,0-2-.67-1.93-2.09C50,70.18,50,67.36,50,64.54Z" style="fill:#060606"/></svg>