<svg xmlns="http://www.w3.org/2000/svg" viewBox="0 0 100 100"><title>card-discount</title><path d="M50,79.17c-10.5,0-21,.06-31.48,0-7.26-.05-10.28-3-10.33-10.4Q8,50,8.19,31.27c.05-7.36,3.07-10.39,10.32-10.41q31.48-.09,63,0c7.26,0,10.28,3,10.34,10.4Q92,50,91.81,68.73c-.05,7.33-3.1,10.37-10.33,10.42C71,79.22,60.5,79.17,50,79.17ZM40,70.82,66.64,34.18l-6.68-5L33.36,65.8Zm30.84-6.45c-.11-3.35-3.28-6.36-6.59-6-3.63.37-5.67,2.7-6,6.2-.28,3.2,3.13,6.35,6.38,6.29A6.54,6.54,0,0,0,70.84,64.37Zm-41.67-29c0,3.32,3,6.59,6.32,6.34a6.2,6.2,0,0,0,6.18-6c.34-3.31-2.72-6.46-6.06-6.56A6.48,6.48,0,0,0,29.16,35.35Z" style="fill:#030303"/></svg>