<svg xmlns="http://www.w3.org/2000/svg" viewBox="0 0 100 100"><title>card-rials</title><path d="M91.28,31.25c-.06-7.35-3.08-10.38-10.34-10.39q-31.48-.09-63,0c-7.25,0-10.26,3.06-10.32,10.41Q7.52,50,7.66,68.75C7.71,76.1,10.73,79.1,18,79.15c10.49.07,21,0,31.48,0h31c7.67,0,10.77-3,10.82-10.43Q91.43,50,91.28,31.25ZM44,60.29a11.85,11.85,0,0,1-1.55,3.27,10.31,10.31,0,0,1-2.26,2.38,13.19,13.19,0,0,1-2.7,1.59,13.73,13.73,0,0,1-2.87.89,14.76,14.76,0,0,1-2.77.28H31.5l-.36,0h0a14.47,14.47,0,0,1-2.49-.42,14,14,0,0,1-2.56-.94,12.32,12.32,0,0,1-2.39-1.5,9.85,9.85,0,0,1-2-2.13,10.22,10.22,0,0,1-1.33-2.84,11.29,11.29,0,0,1-.45-3.3v-.27a22.64,22.64,0,0,1,.35-3.83A22.06,22.06,0,0,1,21,50.66a15,15,0,0,1,1-2.33l4.51,2.16q-.25.47-.47,1t-.41,1a17.91,17.91,0,0,0-.58,2.05,7.63,7.63,0,0,0-.22,1.82c0,.17,0,.34,0,.5a5.51,5.51,0,0,0,.41,1.85,6.17,6.17,0,0,0,.89,1.5,6.7,6.7,0,0,0,1.21,1.16,8.66,8.66,0,0,0,1.37.84,8.27,8.27,0,0,0,1.37.53,5.88,5.88,0,0,0,1.21.23l.25,0h.22a8.73,8.73,0,0,0,1.66-.17,9.43,9.43,0,0,0,1.77-.53,9.25,9.25,0,0,0,1.69-.91,6.58,6.58,0,0,0,1.44-1.33,6.28,6.28,0,0,0,1-1.79A6.58,6.58,0,0,0,39.7,56q0-1.42-.08-3.36t-.2-4.13q-.12-2.19-.28-4.51t-.32-4.54l-.41-5.31q-.21-2.69-.46-5.54l5.75-1.33q.13,3,.24,5.91t.21,5.62q.09,2.34.17,4.79t.15,4.75q.07,2.3.11,4.29t0,3.42A14.35,14.35,0,0,1,44,60.29Zm4.23-10.17q0-.68,0-1.17,0-.86,0-2.15t0-3q0-1.69,0-3.61t-.1-3.55Q48.12,35,48,33.52t-.42-2.88L53.09,29q.22,1.19.34,2.51t.2,2.87q.07,1.55.11,3t.05,2.95q0,.45,0,1t0,1c0,.36,0,.7,0,1s0,.61,0,.86q0,.94,0,1.71t0,1.53c0,.18,0,.42,0,.71s0,.53,0,.71v.47q0,.32,0,.63a1,1,0,0,0,.22.69,1.72,1.72,0,0,0,.91.39,9.05,9.05,0,0,0,1.6.15h.16l.18,0h.72q.67,0,1.4-.05a8,8,0,0,0,1.37-.22,4.4,4.4,0,0,0,1.14-.45,1.67,1.67,0,0,0,.71-.78,2.51,2.51,0,0,0,.14-1,5.13,5.13,0,0,0-.25-1.3q-.25-.86-.67-1.92t-.94-2.21q-.52-1.15-1.06-2.18l5.15-2.56q.5,1.14,1,2.42t.89,2.59a24.86,24.86,0,0,1,.64,2.62,13.61,13.61,0,0,1,.24,2.5A8.38,8.38,0,0,1,66.7,52a7.72,7.72,0,0,1-2.07,2.8,8.38,8.38,0,0,1-3.15,1.63,10,10,0,0,1-2.07.37q-1,.06-1.86.06H54.91a2.9,2.9,0,0,1-1.12-.22,2.79,2.79,0,0,1-.28-.15c-.22-.06-.44-.11-.64-.19a7.22,7.22,0,0,1-2.74-1.68A5.67,5.67,0,0,1,49,53.13a7,7,0,0,1-.56-1.56A8.13,8.13,0,0,1,48.27,50.12ZM59.33,65.85l-3.42-3.42-3.39,3.39L49,62.34l3.46-3.48,3.42,3.42,3.39-3.39,3.5,3.48Zm19.18-9.79a14.83,14.83,0,0,1-1.3,3.13,19.08,19.08,0,0,1-2,2.91,22.45,22.45,0,0,1-2.56,2.62,27.94,27.94,0,0,1-3,2.28,31.25,31.25,0,0,1-3.32,1.9l-3.28-4.56q1.3-.65,2.62-1.47a30.52,30.52,0,0,0,2.54-1.76,25.77,25.77,0,0,0,2.27-2,17.11,17.11,0,0,0,1.84-2.09,10.22,10.22,0,0,0,1.23-2.15A5.57,5.57,0,0,0,74,52.77a7.21,7.21,0,0,0-.21-1.64,19.59,19.59,0,0,0-.56-1.9q-.35-1-.84-2.16l-1-2.44,5.21-2.38q.68,1.95,1.19,3.8.22.81.43,1.68t.39,1.75q.17.87.28,1.71A12.28,12.28,0,0,1,79,52.75,12,12,0,0,1,78.51,56.06Z" style="fill:#030303"/></svg>