<svg xmlns="http://www.w3.org/2000/svg" viewBox="0 0 100 100"><title>checkbox-circle-forced</title><path d="M50.1,8.25C27.39,8.16,7.79,27.84,8.22,50.3,8.66,73.11,27.74,92,50.2,91.75c22.69-.2,41.66-19.26,41.59-41.81S72.75,8.33,50.1,8.25Zm6.45,48.41C51.31,61.76,46,66.78,40.81,71.95c-1.52,1.52-2.48,1.56-4,0Q28.47,63.35,19.89,55c-1.59-1.56-1.42-2.61.08-4.06,4.34-4.2,3.39-3.82,7.18-.11,3,2.91,5.86,5.91,8.83,8.81,2.6,2.55,2.67,2.55,5.14.18q14.55-14,29.06-28.06a32.26,32.26,0,0,1,2.49-2.44c1.24-1,2.21-3,4-2.27s3,2.5,4.29,4c.17.22.13.61.23,1.18-.43.49-.94,1.13-1.52,1.69Q68.14,45.32,56.55,56.66Z" style="fill:#020202"/></svg>