<svg xmlns="http://www.w3.org/2000/svg" viewBox="0 0 100 100"><title>checkmark</title><path d="M85.89,28.79c-.12,1.07-.89,1.52-1.45,2.09-3.4,3.43-6.82,6.83-10.23,10.24L42.79,72.54c-.59.59-1.17,1.18-1.76,1.77-4,3.95-3.63,3.39-7,.11-5.92-5.84-11.78-11.76-17.66-17.64-.47-.47-.91-1-1.41-1.41-1.15-1-1.21-1.87,0-2.85.38-.32.71-.71,1.06-1.06,4.1-4.06,3.25-3.8,7.17.07s8,8,12,12c2.24,2.21,2.33,2.21,4.65-.09q18.2-18.16,36.36-36.36c4.45-4.45,5-4.41,8.93.62C85.44,28.07,85.69,28.48,85.89,28.79Z" style="fill:#060606"/></svg>