<svg xmlns="http://www.w3.org/2000/svg" viewBox="0 0 100 100"><title>checkbox-unchecked</title><path d="M50.3,8.13h29c1.17,0,2.34-.06,3.5,0,5.65.45,8.69,3.57,9.08,9.3.06.83,0,1.66,0,2.5q0,30,0,59.95a25.52,25.52,0,0,1-.25,4.48,8.29,8.29,0,0,1-7.22,7.23,28.91,28.91,0,0,1-5,.26q-29.48,0-59,0c-1,0-2,0-3,0-5.91-.4-9-3.57-9.34-9.56-.06-1,0-2,0-3q0-29.23,0-58.45c0-1.33-.07-2.67.06-4,.51-5.18,3.47-8.14,8.65-8.66,1.32-.13,2.66-.06,4-.06ZM16.88,49.5c0,10,0,20,0,30,0,3.58.05,3.64,3.38,3.64q29.73,0,59.45,0c3.31,0,3.39-.06,3.39-3.13q0-30,0-60c0-3.08-.08-3.14-3.38-3.14q-29.73,0-59.45,0c-3.34,0-3.38.06-3.39,3.63C16.86,30.18,16.88,39.84,16.88,49.5Z" style="fill:#0e0e0e"/></svg>