<svg xmlns="http://www.w3.org/2000/svg" viewBox="0 0 100 100"><title>checkbox-forced</title><path d="M49.5,91.84H20a20.67,20.67,0,0,1-5-.38,8,8,0,0,1-6.53-6.69,24.23,24.23,0,0,1-.39-4.45q0-30.2,0-60.41c0-.83,0-1.67,0-2.5.45-5.78,3.38-8.75,9.13-9.23,1.16-.1,2.33,0,3.49,0H79.21a32,32,0,0,1,4.48.14c4.78.68,7.37,3.33,8,8.14a21.64,21.64,0,0,1,.11,3q0,30.45,0,60.91c0,.5,0,1,0,1.5-.29,6.57-3.38,9.74-9.9,10-2.66.11-5.32,0-8,0ZM23.6,47.42c-1.17,1.11-2.19,2.19-3.33,3.13-1.7,1.4-2.15,2.55-.26,4.36C25.77,60.44,31.4,66.1,36.95,71.83c1.6,1.65,2.55,1.29,4-.13C53.52,59.37,66.17,47.11,78.77,34.8c3.32-3.25,3.27-3.3,0-6.44-2.38-2.28-2.41-2.31-4.8-.3-1.27,1.07-2.41,2.29-3.6,3.44C60.54,41,50.71,50.4,41,59.93c-1.66,1.62-2.75,1.84-4.44.06C33,56.24,29.28,52.67,25.61,49,25,48.47,24.35,48,23.6,47.42Z" style="fill:#040404"/></svg>