<svg xmlns="http://www.w3.org/2000/svg" viewBox="0 0 100 100"><title>checkbox-checked</title><path d="M58,8.28a22.57,22.57,0,0,1-.07,8.51H24c-6.75,0-7,.28-7,7.09,0,17.66.09,35.33-.07,53,0,4.44,1.39,6.3,6,6.26q27.24-.25,54.49,0c4.32,0,5.94-1.62,5.87-5.91-.17-10.3-.06-20.6-.06-30.91,2.91-1.07,5.54-.32,8.37-.57,0,11.85.42,23.47-.16,35-.33,6.51-5.33,10.74-12.26,10.85q-29,.44-58,0C13.44,91.5,8.51,86.38,8.4,78.49q-.4-28.49,0-57C8.47,13.9,12.9,8.72,20.11,8.43,32.7,7.91,45.33,8.28,58,8.28Z" style="fill:#0d0d0d"/><path d="M85.46,16.14,91.55,22l-44.3,46.9-21.16-21,6-5.49L46.35,57.44Z" style="fill:#0d0d0d"/></svg>