<svg xmlns="http://www.w3.org/2000/svg" viewBox="0 0 100 100"><title>checkbox-circle-checked</title><path d="M50.46,83.22A33.36,33.36,0,0,0,82.3,58.33c.38-1.41.3-3.52,1.61-3.9a17.75,17.75,0,0,1,6.42-.22c1.35.12,1.05,1.52.9,2.44a41.55,41.55,0,0,1-82.45-3.3C6.47,25.54,31.12,5.44,54.73,8.64a50.19,50.19,0,0,1,16.11,4.92c1.4.71,1.78,1.34.54,2.49a7,7,0,0,0-1,1.07C68.12,20.3,65.73,20.48,62,19A33,33,0,0,0,18.31,40.67,33.48,33.48,0,0,0,44,82.68,56.75,56.75,0,0,0,50.46,83.22Z" style="fill:#090909"/><path d="M31.2,42.63a3,3,0,0,1,2.23,1.3c3.66,3.64,7.3,7.31,11,10.94,2.47,2.45,2.49,2.44,4.91.13Q65.75,39.32,82.18,23.62c3.89-3.72,2.76-4.2,7.1.18,2.32,2.34,2.24,2.41-.31,4.9-3.34,3.25-6.65,6.54-10,9.76Q64.18,52.64,49.38,66.79c-2.47,2.36-2.48,2.39-4.89,0-5.43-5.41-10.81-10.87-16.27-16.24-3.12-3.08-2.33-2.8.22-5.35C29.36,44.26,30.36,43.4,31.2,42.63Z" style="fill:#090909"/></svg>