<svg xmlns="http://www.w3.org/2000/svg" viewBox="0 0 100 100"><title>city</title><path d="M91.41,32.51l-3.91.82V82.59H67.13V67c.92-1.11,4.42.27,3.7-3s2.05-7.4-2.35-9.88C58.95,48.75,49.42,43.36,40,37.83a4.24,4.24,0,0,0-5,.07c-4.38,2.65-8.87,5.1-13.83,7.93v-12c-.9-2.07-4.23.36-4.37-2.67-.13-2.7,1.72-3.33,3.41-4.27C30.49,21.15,40.83,15.5,51.07,9.67a5.62,5.62,0,0,1,6.36,0C67.8,15.63,78.27,21.37,88.72,27.16,90.65,28.23,92.83,29.09,91.41,32.51Z" style="fill:#040404"/><path d="M62.55,91.3H12.7V64.49c-1-3.31-4.58-1.07-4.57-4.35,0-3,2.43-3.31,4.14-4.32,7.3-4.28,14.75-8.33,22-12.68,2.26-1.36,4-1.55,6.31-.14,7.68,4.62,15.52,9,23.3,13.44,1.38.8,3,1.23,3,3.46S65.51,62,64,62.29c-2.17.43-1.41,2.35-1.42,3.7C62.52,74.29,62.55,82.59,62.55,91.3Z" style="fill:#040404"/></svg>