<svg xmlns="http://www.w3.org/2000/svg" viewBox="0 0 100 100"><title>clock</title><path d="M50.58,8.27C73.72,8.94,92.3,28,91.78,50.48c-.54,23.26-20.06,42.14-42.6,41.24C25.9,90.78,7.31,71.52,8.24,49.31,9.22,26,28.14,7.62,50.58,8.27ZM83.16,50c0-18.79-14.29-33.12-33-33.14S16.91,31.07,16.86,49.77c-.05,19.07,14.25,33.43,33.27,33.4C68.88,83.14,83.16,68.8,83.16,50Z" style="fill:#080808"/><path d="M59.32,65.61c-4.15-4.29-8-8.39-12-12.38a5.07,5.07,0,0,1-1.51-4c.05-6.47,0-12.93,0-19.49,2.72-1.18,5.29-.27,8.36-.69,0,4.6.33,8.74-.09,12.8-.48,4.75,1,8.3,4.73,11.17,2.36,1.81,4.48,3.94,6.9,6.09Z" style="fill:#080808"/></svg>