<svg xmlns="http://www.w3.org/2000/svg" viewBox="0 0 100 100"><title>coins</title><path d="M40,29.19A31.56,31.56,0,0,1,70.89,60.63c-.11,15.3-11.92,31-31.33,31.06A30.72,30.72,0,0,1,8.39,60.49C8.44,41,24.44,29,40,29.19ZM27.35,69.45Q27.49,79.52,40.48,79c7.38-.26,12-5.55,11.54-13.18a12.91,12.91,0,0,0-3.83-8.94c-3.51-3.23-7.9-2.41-12.46-1.56.12-2.21.27-4,.29-5.78,0-1.51.79-2,2.18-2,3.32,0,6.65-.06,10,0,2.1,0,2.47-1.08,2.44-2.83s0-3-2.25-2.92c-5.48.09-11,0-16.45,0-1.08,0-1.89.16-2,1.53-.56,5.78-1.21,11.55-1.81,17.33-.13,1.21.49,1.75,1.68,1.95a7.18,7.18,0,0,0,5.94-1.45c3.72-2.72,7.71-.68,8.32,3.9a16.45,16.45,0,0,1,0,3.48c-.25,3.06-1.43,4.57-3.82,5.09a4.62,4.62,0,0,1-5.61-2.9c-.79-2-1.84-2-3.39-1.8C29.93,69.2,28.56,68.67,27.35,69.45Z" style="fill:#050505"/><path d="M78.79,55a47.78,47.78,0,0,0-6.25-16.6c-.72-1.18-.31-2.61-.33-3.93,0-4.31,0-8.62,0-13.44-4.31,1.88-8.88,2.08-12,5.88a37,37,0,0,0-14.43-5.46c2.82-9.29,15.26-13.86,22.73-13C80.4,9.77,89.09,17.6,91.17,28.92,93.15,39.74,88.31,50.12,78.79,55Z" style="fill:#050505"/></svg>