<svg xmlns="http://www.w3.org/2000/svg" viewBox="0 0 100 100"><title>donate</title><path d="M84.15,20.21c-.54,2.85-1.92,5.13-3,7.52-3,7-6.59,13.74-10.07,20.52a10.88,10.88,0,0,1-4.69,5q-13.91,7.2-27.83,14.4c-6.12,3.18-10.51-2.73-10-7.4a7.44,7.44,0,0,1,4.06-5.93c2.76-1.52,5.52-3.05,8.35-4.42a13.29,13.29,0,0,0,6.16-5.53c1.53-2.72,3.43-5.23,5.46-8.27-4.13-1.14-7.88-.7-11.54-.55-4.27.17-5.93,4.38-8.82,6.3-.75,2.07,1.32,3.28.79,5.35-3.65,2.59-7.92,5.07-9.35,10.55-2.27-4.34-4.3-8.27-6.37-12.18-2.15-4.07-2-7.95.81-11.68s5.5-7.51,8.26-11.25a12.7,12.7,0,0,1,6-4.27c8.06-3.05,16.11-6.15,24.16-9.23a5,5,0,0,1,4.29-.15C68.54,12.72,76.3,16.42,84.15,20.21Z" style="fill:#050505"/><path d="M23.34,65.54c1.74,1.32,2.69,3.28,4,4.92,3.06,3.82,6.4,4.78,11,2.93,2.6-1.05,5.06-2.43,7.62-3.6,1.62-.74,3.11-1.82,4.92-2C55,74.57,53.14,82.88,46.58,88a16.44,16.44,0,0,1-21.74-1.32A15.69,15.69,0,0,1,23.34,65.54Z" style="fill:#050505"/></svg>