<svg xmlns="http://www.w3.org/2000/svg" viewBox="0 0 100 100"><title>file-add</title><path d="M74.76,100c-.07-3-.12-6-.2-9-.09-3.32-.09-3.35-3.23-3.43a56.87,56.87,0,0,0-6.47,0c-2.55.22-3.26-.94-3-3.21.08-.65,0-1.33,0-2,.09-3.21.09-3.23,3.34-3.3,2.16,0,4.32-.1,6.48,0s3.05-.51,2.9-2.77c-.16-2.48,0-5,0-7.47,0-1.41.42-2.22,2-2.1.33,0,.66,0,1,0,6.57.07,5.37-.54,5.43,5.09.08,7.22,0,7.18,7.36,7.24,5.72.05,5.24-1.27,5.37,5.78,0,2.35-1,2.79-3,2.7-2.15-.1-4.32-.07-6.48,0C83.05,87.7,83,87.73,83,91c-.08,3-.13,6-.2,9Z" style="fill:#0e0e0e"/><path d="M16.16,47.86c0-9.66,0-19.33,0-29,0-7.68,2.9-10.68,10.49-10.71q23-.11,46,0C80.1,8.2,82.89,11,82.94,18.48c.07,12,0,24,0,36,0,4.1.06,3.72-3.85,3.72a18.15,18.15,0,0,0-2,0c-1.93.22-2.61-.57-2.58-2.53.1-6.16,0-12.33,0-18.5,0-5.83-.08-11.67,0-17.5,0-2.19-.72-2.86-2.85-2.85q-22.24.1-44.49,0c-2.36,0-2.67,1-2.66,3,0,18.83.09,37.66,0,56.49,0,2.69,1.11,2.92,3.27,2.89,7.33-.1,14.66,0,22,0,4.11,0,4-.45,4,4.13,0,.17,0,.33,0,.5,0,3.78,0,3.82-3.76,3.83-7.83,0-15.66.06-23.49,0-7.46-.06-10.3-2.86-10.35-10.24C16.11,67.52,16.16,57.69,16.16,47.86Z" style="fill:#0e0e0e"/></svg>