<svg xmlns="http://www.w3.org/2000/svg" viewBox="0 0 100 100"><title>file-image</title><path d="M16.81,49.82c0-10.5,0-21,0-31.49,0-7,2.86-10.05,9.93-10.14,9.49-.13,19,0,28.49-.08a6.63,6.63,0,0,1,5.25,2.16C67.25,17.18,74.05,24,81,30.76a7.12,7.12,0,0,1,2.2,5.74c-.07,15.16,0,30.32,0,45.48,0,6.6-3,9.76-9.77,9.81q-23.49.18-47,0c-6.69-.06-9.57-3.26-9.58-10C16.8,71.14,16.81,60.48,16.81,49.82Zm24.84,8.5c-8.67,3.08-9.86,9.06-8,16.46H65.92c.53-8.43-5-12.68-12.34-9.34-2.32,1.06-3.69.52-5.23-.91ZM54.26,37.15H74.54L54.26,17Zm6.52,21C64,58.14,66,56,66.56,52.52c.48-3.31-2.58-6.6-6-6.57-3.7,0-5.87,2.16-6.38,5.68S56.67,58,60.78,58.17Z" style="fill:#030303"/></svg>