<svg xmlns="http://www.w3.org/2000/svg" viewBox="0 0 100 100"><title>file-image-add</title><path d="M50,16.82c10.65,0,21.3,0,32,0,6.27,0,9.69,2.67,9.79,8.7q.38,24.46,0,48.92c-.09,5.88-3.45,8.71-9.27,8.72q-32.45.06-64.9,0c-5.82,0-9.21-2.86-9.29-8.69Q7.93,50,8.26,25.55c.08-5.83,3.46-8.69,9.27-8.71C28.35,16.79,39.16,16.82,50,16.82ZM82.89,74.75V25.33H17V74.75Z" style="fill:#070707"/><path d="M45.73,66.5V54.31h-12c-1-2.85-.48-5.3-.49-8,3.9-1.24,7.92,0,12-.78,1.29-3.85-.09-8.07.84-12.22h7.95V45.69H66.25c1,2.84.48,5.3.49,8-3.9,1.25-7.92,0-12,.79-1.29,3.85.09,8.07-.8,12.07Z" style="fill:#070707"/></svg>