<svg xmlns="http://www.w3.org/2000/svg" viewBox="0 0 100 100"><title>image</title><path d="M50,83.21c-10.66,0-21.32,0-32,0-6.44,0-9.7-2.87-9.8-9.25C8,62.13,8,50.29,8.25,38.47c.12-6.3,3.54-9.2,9.9-9.28,1.67,0,3.34-.08,5,0,4.17.22,6.37-1.6,6-5.88-.44-5.12,2-6.67,6.85-6.54,9.49.25,19,.21,28.48,0,4.36-.09,6.75,1.33,6.37,6s1.81,6.78,6.49,6.44c1.66-.12,3.33,0,5,0,5.61.12,9.15,2.76,9.3,8.26q.53,18.72,0,37.47c-.14,5.57-3.54,8.24-9.18,8.27C71.68,83.25,60.85,83.21,50,83.21ZM50.12,76A21.82,21.82,0,0,0,71.85,54.1c0-11.9-10.13-22-21.93-21.89A22.24,22.24,0,0,0,28.16,54.3,21.86,21.86,0,0,0,50.12,76Zm35.1-36.55c-.17-2.64-1.71-3.94-4.23-3.81a3.73,3.73,0,0,0-3.8,3.86,3.84,3.84,0,0,0,4.1,4.12C83.74,43.65,85.23,42.13,85.22,39.48Z" style="fill:#040404"/><path d="M66.68,54.1a16.66,16.66,0,1,1-17-16.54A16.89,16.89,0,0,1,66.68,54.1Z" style="fill:#040404"/></svg>