<svg xmlns="http://www.w3.org/2000/svg" viewBox="0 0 100 100"><title>location</title><path d="M49.87,79.69c-11-12.46-21-24.61-24.33-40.76C23.38,28.35,27.48,18.18,36.18,12.4a25,25,0,0,1,38.11,26.3C70.92,55,60.9,67.24,49.87,79.69Zm8.82-46.1a9,9,0,0,0-8.3-8.86,8.86,8.86,0,0,0-9.26,8.33,9,9,0,0,0,8.82,8.87A8.66,8.66,0,0,0,58.68,33.59Z" style="fill:#030303"/><path d="M28,62.87,30,70.7c-4.2,2.22-9.48,2-13.78,6.36,22.7,8.42,44.53,8.24,67.3.22-3.79-4.85-8.79-4.6-13.21-6.39l1.06-7.77a35.33,35.33,0,0,1,14,4.32c8.16,4.72,8.34,12.24.35,17.18-5.77,3.56-12.33,4.84-18.95,5.74-16,2.15-31.86,2-47.33-3.31-5.32-1.81-10.89-4.21-11-10.72S14,67.44,19.23,65.49C22,64.47,24.88,63.79,28,62.87Z" style="fill:#030303"/></svg>