<svg xmlns="http://www.w3.org/2000/svg" viewBox="0 0 100 100"><title>map-with-point</title><path d="M54.54,13.83,52,21.49,38.65,17.43c-1.38,1.2-.89,2.61-.9,3.83,0,15,0,30-.07,45,0,2.61.57,4.1,3.21,5.31,7.18,3.3,14.13,7.08,21.91,11V49.14c4.71,5.06,7.56,10.43,12.49,14.33,6.39-6,10.9-13.39,16.37-21V78c-8.74,4.17-17.88,8.49-27,12.9-2,1-3.47.08-5.11-.75C53.35,87,47,84,40.89,80.77a6.14,6.14,0,0,0-6.37,0c-7,3.48-14.14,6.6-21.15,10-3.42,1.66-5,.82-5-3,0-21,0-42-.06-62.95a3.57,3.57,0,0,1,2.46-3.71Q23.15,15.29,35.49,9.36a6,6,0,0,1,4.79-.2C44.83,10.68,49.4,12.15,54.54,13.83Z" style="fill:#070707"/><path d="M75.22,54.18c-5.85-7.09-10.93-14-14.63-21.85C57,24.73,58.67,17,64.75,12.14A16.61,16.61,0,0,1,85.51,12c6.13,4.82,8,12.64,4.37,20.18C86.17,40,81.08,47,75.22,54.18ZM76,18.95c-4-.13-7,2.74-6.88,6.16.18,3.66,2.3,5.76,5.91,6.07A6.05,6.05,0,0,0,81.31,25,6,6,0,0,0,76,18.95Z" style="fill:#070707"/></svg>