<svg xmlns="http://www.w3.org/2000/svg" viewBox="0 0 100 100"><title>map</title><path d="M8.16,56.08c0-10,.15-20-.09-30-.07-3,1-4.41,3.59-5.56,7.71-3.49,15.37-7.07,23-10.82a7.36,7.36,0,0,1,6.14-.36c6,2.06,12,3.91,17.94,6.06a10.86,10.86,0,0,0,7.71.1C73.14,13.21,80,11.17,86.79,9.07c4.18-1.29,5-.7,5.06,3.76.06,13,0,26,0,39,0,7.66-.12,15.32.07,23,.06,2.4-.82,3.55-2.85,4.49q-12,5.52-23.83,11.29a5.57,5.57,0,0,1-5.58-.2C53.49,87.13,47.16,84.2,41,80.94a7,7,0,0,0-7-.11c-6.87,3.32-13.85,6.41-20.79,9.58C8.89,92.41,8.21,92,8.17,87c-.05-7.49,0-15,0-22.48Q8.16,60.33,8.16,56.08Zm54.27-2.25c0-8.49,0-17,0-25.46,0-1.23.46-2.66-1.41-3.26-7.1-2.27-14.18-4.64-21.27-7-1.48-.48-2.16.12-2.14,1.68,0,3.49,0,7,0,10.48q0,18.22,0,36.44c0,1.66-.2,3.24,1.78,4.21C46.21,74.31,53,77.82,59.82,81.19c2.43,1.2,2.58,1.09,2.6-1.91C62.46,70.8,62.43,62.31,62.43,53.83Z" style="fill:#060606"/></svg>