<svg xmlns="http://www.w3.org/2000/svg" viewBox="0 0 100 100"><title>money</title><path d="M50.51,14.71c11.48,0,23,0,34.44,0,5.59,0,6.85,1.22,6.88,6.68q.1,18.22,0,36.44c0,5.64-1.21,6.9-6.66,6.91-23.46,0-46.92,0-70.38.06-4.62,0-6.72-1.83-6.68-6.49.09-12.48.06-25,0-37.44,0-4.41,2-6.26,6.44-6.21C26.55,14.79,38.53,14.71,50.51,14.71Zm15.94,41.5V23.46h-33V56.21ZM24.84,23.36H17.17V56.12h7.67Zm50.4-.09V56.2h7.68V23.27Z" style="fill:#0a0a0a"/><path d="M67.07,69.19h7.78l.31,6.6,7.43,1.41c1.18-2.48.09-5.05.84-7.77,2.61-.72,5.31-.42,8.42-.15,0,2.41.1,4.54,0,6.66-.38,6.9-3.77,10-10.63,9.28-8.11-.85-16-2.88-23.92-4.86-12.9-3.23-26-3.32-39.2-3.16-6.13.08-8.73-2.3-9.15-8,19.3-.5,38.58-1.11,57.53,5.18Z" style="fill:#0a0a0a"/><path d="M41.82,39.75a8.18,8.18,0,1,1,8.07,8.33A8.15,8.15,0,0,1,41.82,39.75Z" style="fill:#0a0a0a"/></svg>