<svg xmlns="http://www.w3.org/2000/svg" viewBox="0 0 100 100"><title>reload</title><path d="M75.16,33.16c-3.5,0-7,0-10.49,0a5,5,0,0,1-1.32-.39A5,5,0,0,1,64,31.5c1.61-1.68,3.3-3.29,4.91-5,2.13-2.25,2.15-2.41-.34-4.05-9.37-6.17-19.37-7.3-30-3.72C27.35,22.52,15.32,34.68,17,53.73,18.16,67.42,29.07,80,43.33,82.62c22.17,4,38.28-11.5,39.77-29.33.21-2.51.72-3.41,3.37-3.38,5.6.07,5.61-.08,4.77,5.74C88.33,76,72.33,90.52,51.51,91.62c-19.46,1-37.37-12.67-42-32.13A41.81,41.81,0,0,1,26.36,15.7a41.2,41.2,0,0,1,46.83-.15c4,2.7,3.9,2.61,7.49-.73,2.11-2,3.54-4.76,6.58-5.63.84,2.75.3,5.56.37,8.34.1,4.33,0,8.66.06,13,0,1.92-.57,2.73-2.54,2.67-3.33-.09-6.66,0-10,0Z" style="fill:#080808"/></svg>