<svg xmlns="http://www.w3.org/2000/svg" viewBox="0 0 100 100"><title>search</title><path d="M84.13,91.75C75.15,80.59,62.86,73.16,56,60.28c-7.72,5.64-16.78,8-26.7,5.17A28.07,28.07,0,0,1,12.84,53.22C5.27,41.41,7.38,25,17.65,15.86a29.47,29.47,0,0,1,39.18-.3C68.29,25.35,69.57,41,60.16,56.15c13.06,6.4,20.41,19.11,31.53,27.92A38.53,38.53,0,0,1,84.13,91.75Zm-26-54.18c0-12-8.7-20.77-20.63-20.77C25.69,16.79,16.9,25.4,16.8,37c-.1,12.08,8.49,21,20.35,21C49.17,58.15,58,49.46,58.08,37.56Z" style="fill:#0b0b0b"/></svg>