<svg xmlns="http://www.w3.org/2000/svg" viewBox="0 0 100 100"><title>tag-rials</title><path d="M55,8.33H91.38v35.4C79.49,56.19,68.15,68.11,56.76,80q-4.49,4.68-9.25,9.1C43.76,92.55,39.67,92.55,36,89Q23.77,76.89,11.7,64.61c-4.07-4.16-4.12-8.66-.07-12.75C26,37.3,40.5,22.85,55,8.33ZM77.9,29.11A5.82,5.82,0,0,0,83.09,23a5.83,5.83,0,0,0-6.33-6c-3.71.24-5.69,2.42-5.82,6.07C70.82,26.52,73.79,29.26,77.9,29.11Z" style="fill:#020202"/><path d="M41.26,58.82c.05.17.12.34.19.51l.23.51a9.62,9.62,0,0,0,.54.94,4.05,4.05,0,0,0,.78.89,2.8,2.8,0,0,0,.82.5,3.11,3.11,0,0,0,.86.21,3.42,3.42,0,0,0,.85,0,4.34,4.34,0,0,0,.79-.2,4.24,4.24,0,0,0,.68-.31,3,3,0,0,0,.51-.36l.1-.08.08-.08a4.3,4.3,0,0,0,.52-.66,4.79,4.79,0,0,0,.43-.83,4.67,4.67,0,0,0,.26-.94,3.32,3.32,0,0,0,0-1,3.21,3.21,0,0,0-.3-1,3.35,3.35,0,0,0-.7-.93q-.52-.5-1.25-1.15l-1.57-1.38-1.74-1.49-1.77-1.48-2.08-1.72-2.18-1.78,1.54-2.56,2.24,2,2.12,1.9L45,49.9l1.78,1.62L48.4,53l1.26,1.19A7.29,7.29,0,0,1,51,55.88a5.94,5.94,0,0,1,.64,1.72,5.14,5.14,0,0,1,.07,1.66,6.67,6.67,0,0,1-.37,1.54,6.91,6.91,0,0,1-.69,1.36,7.37,7.37,0,0,1-.87,1.11l-.13.14-.13.12h0a7.27,7.27,0,0,1-1,.76,7.1,7.1,0,0,1-1.24.6,6.28,6.28,0,0,1-1.39.34,5,5,0,0,1-1.47,0,5.18,5.18,0,0,1-1.5-.51,5.86,5.86,0,0,1-1.46-1.09,11.56,11.56,0,0,1-1.27-1.48,10.67,10.67,0,0,1-.77-1.23,7.23,7.23,0,0,1-.5-1.18Zm12.95-8.74a5.87,5.87,0,0,1-1.54,1.19,3.63,3.63,0,0,1-1.58.41,2.86,2.86,0,0,1-.94-.13,3.6,3.6,0,0,1-.76-.34,4.13,4.13,0,0,1-.6-.44l-.44-.4-.77-.78L46.5,48.52l-1.32-1.27q-.71-.67-1.33-1.21t-1.22-1q-.6-.47-1.2-.86l1.34-2.61q.51.34,1,.76t1.12.94l1.12,1,1.09,1,.36.34.39.37.37.35.32.3.62.61.55.55L50,48l.26.25c.14.15.28.27.4.38a.5.5,0,0,0,.33.16.89.89,0,0,0,.46-.2,4.39,4.39,0,0,0,.62-.53l.06-.06a1.36,1.36,0,0,1,.47-.32,1.53,1.53,0,0,1,1.1,0,1.39,1.39,0,0,1,.81.78,1.5,1.5,0,0,1,.11.55,1.39,1.39,0,0,1-.1.54A1.43,1.43,0,0,1,54.21,50.07Zm-2.66.68a1.41,1.41,0,0,1-.33-.48,1.48,1.48,0,0,1-.12-.54,1.34,1.34,0,0,1,.1-.54,1.5,1.5,0,0,1,.31-.48l.65-.68.29-.29c.16-.16.31-.34.47-.53a4.2,4.2,0,0,0,.4-.57,2.23,2.23,0,0,0,.23-.57.84.84,0,0,0,0-.53,1.29,1.29,0,0,0-.3-.4,2.61,2.61,0,0,0-.56-.37c-.27-.14-.58-.29-.94-.43S51,44,50.59,43.9s-.79-.27-1.17-.38l.88-2.78c.39.14.8.31,1.23.49s.85.38,1.26.59a12.52,12.52,0,0,1,1.18.69,6.87,6.87,0,0,1,1,.79,4.26,4.26,0,0,1,1,1.41,3.88,3.88,0,0,1,.29,1.74,4.24,4.24,0,0,1-.52,1.72,5.11,5.11,0,0,1-.6.89q-.33.38-.63.7l-.87.9-.06.06a1.49,1.49,0,0,1-.47.33,1.38,1.38,0,0,1-.54.12,1.49,1.49,0,0,1-.54-.1A1.42,1.42,0,0,1,51.55,50.75Zm6.81-1,0,2.48-2.45,0,0,2.43-2.5,0,0-2.48,2.45,0,0-2.43ZM55.88,37.67q1,.44,1.8.91l.77.43c.26.15.52.31.77.48s.49.33.72.5a6.28,6.28,0,0,1,.61.51,6,6,0,0,1,1,1.33,7.5,7.5,0,0,1,.68,1.57,9.74,9.74,0,0,1,.36,1.75A11.25,11.25,0,0,1,62.69,47a13.82,13.82,0,0,1-.23,1.9A16.19,16.19,0,0,1,62,50.79l-2.82-.41c.15-.47.28-1,.39-1.47s.2-1,.25-1.54a13,13,0,0,0,.08-1.52,8.65,8.65,0,0,0-.12-1.41,5,5,0,0,0-.35-1.21,2.82,2.82,0,0,0-.62-.92,3.63,3.63,0,0,0-.67-.5,9.56,9.56,0,0,0-.89-.47c-.33-.15-.69-.31-1.08-.46l-1.26-.48Z" style="fill:#fff"/></svg>