<svg xmlns="http://www.w3.org/2000/svg" viewBox="0 0 100 100"><title>tag-donate</title><path d="M55,8.33H91.38v35.4C79.49,56.19,68.15,68.11,56.76,80q-4.49,4.68-9.25,9.1C43.76,92.55,39.67,92.55,36,89Q23.77,76.89,11.7,64.61c-4.07-4.16-4.12-8.66-.07-12.75C26,37.3,40.5,22.85,55,8.33ZM77.9,29.11A5.82,5.82,0,0,0,83.09,23a5.83,5.83,0,0,0-6.33-6c-3.71.24-5.69,2.42-5.82,6.07C70.82,26.52,73.79,29.26,77.9,29.11Z" style="fill:#020202"/><path d="M38.65,66.08a6.31,6.31,0,0,1-1.8,1.36,3.54,3.54,0,0,1-1.74.38,2.67,2.67,0,0,1-1-.29,3.25,3.25,0,0,1-.76-.54,3.35,3.35,0,0,1-.45-.53,2.83,2.83,0,0,1-.27-.48,5.32,5.32,0,0,1-.34-1.58,8,8,0,0,1,.05-1.5,7.87,7.87,0,0,1,.29-1.32c.13-.41.25-.76.37-1.06l-.33-.27L32.39,60l-.45-.37,1.54-2.47.3.24.56.45.7.55.7.55.56.44.29.22,1.49,1.11.94.68.52.34.23.12a.78.78,0,0,0,.58,0,2,2,0,0,0,.6-.46,1.46,1.46,0,0,1,.46-.32,1.42,1.42,0,0,1,.54-.12,1.52,1.52,0,0,1,.55.09,1.4,1.4,0,0,1,.81.79,1.47,1.47,0,0,1,.11.54,1.52,1.52,0,0,1-.1.54,1.42,1.42,0,0,1-.3.48l-.31.3c-.12.11-.25.21-.39.32a4.8,4.8,0,0,1-.46.31,3.5,3.5,0,0,1-.53.25,3.3,3.3,0,0,1-.77.19,3.27,3.27,0,0,1-.81,0c-.19.25-.37.49-.56.71S38.84,65.88,38.65,66.08Zm-2.1-2,.27-.3.25-.31-.56-.41-.66-.5-.67-.52c-.08.25-.16.53-.24.85a9.26,9.26,0,0,0-.19.94,3.94,3.94,0,0,0,0,.84.8.8,0,0,0,.19.54c.06.05.15.05.28,0a2.72,2.72,0,0,0,.45-.28,5.7,5.7,0,0,0,.49-.41Z" style="fill:#fff"/><path d="M40.68,63.75a1.41,1.41,0,0,1-.33-.48,1.54,1.54,0,0,1-.12-.54,1.36,1.36,0,0,1,.1-.54,1.48,1.48,0,0,1,.32-.48l.7-.73.3-.31c.19-.2.39-.42.6-.68a9.09,9.09,0,0,0,.57-.77,4.46,4.46,0,0,0,.41-.75,1.23,1.23,0,0,0,.12-.64.75.75,0,0,0-.23-.36,2.93,2.93,0,0,0-.8-.51c-.34-.16-.71-.31-1.1-.44s-.76-.26-1.13-.37l-.91-.28.89-2.76a9.07,9.07,0,0,1,1.22.42q.67.28,1.32.62a13.44,13.44,0,0,1,1.23.72,6.41,6.41,0,0,1,.94.73,4.24,4.24,0,0,1,1,1.41,3.91,3.91,0,0,1,.29,1.74,4.23,4.23,0,0,1-.52,1.72,4.6,4.6,0,0,1-.39.58c-.17.22-.34.43-.53.65l-.53.59-.4.42-.92,1-.06.06a1.44,1.44,0,0,1-.47.33,1.36,1.36,0,0,1-.54.12,1.51,1.51,0,0,1-.54-.1A1.42,1.42,0,0,1,40.68,63.75ZM50,60.49l0,2.49-2.45,0,0,2.43-2.5,0,0-2.48,2.45,0,0-2.43Z" style="fill:#fff"/><path d="M54,52.07l-.41.39a2.57,2.57,0,0,1-.69.42,7,7,0,0,1,1,2,9.62,9.62,0,0,1,.42,2.31,11.85,11.85,0,0,1-.11,2.47,16.72,16.72,0,0,1-.58,2.53l-2.82-.4q.21-.7.39-1.44c.12-.5.21-1,.28-1.47a12.84,12.84,0,0,0,.12-1.43,7.34,7.34,0,0,0-.07-1.32A4.64,4.64,0,0,0,51.21,55a2.74,2.74,0,0,0-.61-.9l-.06-.05L50.45,54l-.06-.05s0,0,0,0h0a8.65,8.65,0,0,0-.86-.57,10.05,10.05,0,0,0-.92-.47q-.48-.22-1-.43L46.34,52l1-2.7q1,.5,1.79.78a6.85,6.85,0,0,0,1.27.36,2,2,0,0,0,.87,0,1.3,1.3,0,0,0,.58-.35l0,0a1.36,1.36,0,0,1,.48-.32,1.54,1.54,0,0,1,.55-.11,1.46,1.46,0,0,1,.55.1A1.37,1.37,0,0,1,54,50a1.43,1.43,0,0,1,.44,1,1.44,1.44,0,0,1-.1.54A1.51,1.51,0,0,1,54,52.07Z" style="fill:#fff"/><path d="M51.83,52.2a1.46,1.46,0,0,1-.33-.47,1.41,1.41,0,0,1-.12-.54,1.39,1.39,0,0,1,.1-.54,1.48,1.48,0,0,1,.32-.48l.48-.5c.3-.31.58-.63.84-.95a4,4,0,0,0,.58-.93,1.86,1.86,0,0,0,.16-.89,1.33,1.33,0,0,0-.41-.82l-.24-.23a1.55,1.55,0,0,0-.26-.19l-.45-.25L51.72,45,53,42.55a7.07,7.07,0,0,1,1.06.58,13.67,13.67,0,0,1,1.29.94c.14.12.29.23.45.35a2.21,2.21,0,0,0,.49.27,1.12,1.12,0,0,0,.49.07.69.69,0,0,0,.44-.23,1.5,1.5,0,0,1,.47-.33,1.42,1.42,0,0,1,.54-.12,1.46,1.46,0,0,1,.55.1,1.47,1.47,0,0,1,.81.79,1.41,1.41,0,0,1,.11.55,1.46,1.46,0,0,1-.1.54,1.43,1.43,0,0,1-.3.47,3.76,3.76,0,0,1-1.24.89,3.54,3.54,0,0,1-1.25.29,4.06,4.06,0,0,1-.33,1,8.26,8.26,0,0,1-.58,1,11.34,11.34,0,0,1-.75,1c-.27.33-.55.64-.84.94l-.48.5a1.47,1.47,0,0,1-.47.33,1.4,1.4,0,0,1-1.08,0A1.47,1.47,0,0,1,51.83,52.2Zm9.47-3,0,2.49-2.45,0,0,2.43-2.5,0,0-2.49,2.45,0,0-2.43Z" style="fill:#fff"/><path d="M52.74,32.62l2.87,0,0,2.87-2.87,0Zm4.58,13.91a1.41,1.41,0,0,1-.33-.48,1.47,1.47,0,0,1-.12-.54A1.38,1.38,0,0,1,57,45a1.49,1.49,0,0,1,.32-.49l1.22-1.26a19.33,19.33,0,0,0,1.76-2.08,17.91,17.91,0,0,0,2.18-3.95q.38-1,.72-1.94a11.21,11.21,0,0,1-1.17.6l-1.22.56q-.6.28-1.16.61a4.68,4.68,0,0,0-1,.77,1.64,1.64,0,0,0-.41.75,4.28,4.28,0,0,0-.13.89,4.91,4.91,0,0,0,0,.79,3.92,3.92,0,0,0,.08.46l-2.44.57a8.52,8.52,0,0,1-.29-1.42,6.64,6.64,0,0,1,0-1.47A5.06,5.06,0,0,1,55.79,37a3.61,3.61,0,0,1,.77-1.19,5.4,5.4,0,0,1,.83-.7,9.32,9.32,0,0,1,1-.56q.5-.26,1-.47l1.05-.42,1-.39c.33-.13.67-.28,1-.44a8.08,8.08,0,0,0,1-.56,5.9,5.9,0,0,0,.91-.76l1.86,2.11L65.72,35q-.28.84-.53,1.68t-.55,1.7q-.3.85-.65,1.71a16.07,16.07,0,0,1-.83,1.72,17.63,17.63,0,0,1-1.11,1.72,16.21,16.21,0,0,1-1.46,1.73l-1.17,1.21-.05.05a1.46,1.46,0,0,1-.48.33,1.51,1.51,0,0,1-.54.12,1.45,1.45,0,0,1-.54-.09A1.42,1.42,0,0,1,57.31,46.53Z" style="fill:#fff"/></svg>