<svg xmlns="http://www.w3.org/2000/svg" viewBox="0 0 100 100"><title>tag-free</title><path d="M55,8.33H91.38v35.4C79.49,56.19,68.15,68.11,56.76,80q-4.49,4.68-9.25,9.1C43.76,92.55,39.67,92.55,36,89Q23.77,76.89,11.7,64.61c-4.07-4.16-4.12-8.66-.07-12.75C26,37.3,40.5,22.85,55,8.33ZM77.9,29.11A5.82,5.82,0,0,0,83.09,23a5.83,5.83,0,0,0-6.33-6c-3.71.24-5.69,2.42-5.82,6.07C70.82,26.52,73.79,29.26,77.9,29.11Z" style="fill:#020202"/><path d="M41.55,69.71q-.44.45-.94.89a8.21,8.21,0,0,1-1.07.78,6.89,6.89,0,0,1-1.2.58,4.9,4.9,0,0,1-1.32.28,5.41,5.41,0,0,1-1.35-.05,6,6,0,0,1-1.28-.37,6.78,6.78,0,0,1-1.19-.64,7.7,7.7,0,0,1-1.08-.87,10.07,10.07,0,0,1-1.84-2.44,11.73,11.73,0,0,1-1.13-3.07l2.49-.45a5.07,5.07,0,0,0,.23.82A10.6,10.6,0,0,0,33,67.5a6.2,6.2,0,0,0,.87,1.06,2.75,2.75,0,0,0,1.22.71,3.44,3.44,0,0,0,1.39.07,4.45,4.45,0,0,0,1.41-.47,5.28,5.28,0,0,0,1.27-.93,6.35,6.35,0,0,0,.8-1,6.07,6.07,0,0,0,.55-1.08,4.92,4.92,0,0,0,.29-1.11,3.92,3.92,0,0,0,0-1.07,3,3,0,0,0-.29-1,2.55,2.55,0,0,0-.62-.79,4.4,4.4,0,0,0-.74-.51c-.3-.17-.61-.33-.94-.48s-.66-.3-1-.43l-.95-.36-.75-.27-.42-.16L35.89,57l.35.11.76.29,1,.45c.38.18.77.37,1.17.58s.79.44,1.17.68a8.9,8.9,0,0,1,1,.76l.13.12.13.12a7.33,7.33,0,0,1,1,1.25,6.5,6.5,0,0,1,.71,1.47,6.31,6.31,0,0,1,.32,1.63,5.79,5.79,0,0,1-.15,1.72A6.85,6.85,0,0,1,42.88,68,8.64,8.64,0,0,1,41.55,69.71ZM30.71,59.24l2.87,0,0,2.87-2.87,0Z" style="fill:#fff"/><path d="M46.08,56a5.91,5.91,0,0,1-1.54,1.19,3.68,3.68,0,0,1-1.58.4,2.84,2.84,0,0,1-.94-.13,3.53,3.53,0,0,1-.77-.34,4.21,4.21,0,0,1-.6-.44l-.44-.4-.1-.09-.68-.69-1.06-1L37,53.11q-.75-.71-1.52-1.4T34,50.43a15.45,15.45,0,0,0-1.34-1L34,46.89a13.69,13.69,0,0,1,1.15.85q.64.52,1.32,1.1T37.77,50L39,51.19q.5.47.93,1t.85,1a9.55,9.55,0,0,0,.88.84,4,4,0,0,0,1,.62.82.82,0,0,0,.37.07.78.78,0,0,0,.31-.1,1.46,1.46,0,0,0,.29-.22l.31-.3L44,54a1.38,1.38,0,0,1,.47-.32,1.51,1.51,0,0,1,1.1,0,1.35,1.35,0,0,1,.48.3,1.33,1.33,0,0,1,.32.48,1.54,1.54,0,0,1,.11.55,1.38,1.38,0,0,1-.1.54A1.45,1.45,0,0,1,46.08,56Z" style="fill:#fff"/><path d="M39.88,37.86l-3,7.66-.93-1,2.76-7ZM44,56a1.41,1.41,0,0,1-.33-.48,1.36,1.36,0,0,1-.11-.54,1.53,1.53,0,0,1,.1-.55A1.42,1.42,0,0,1,44,54l.06-.06,2.1-2.17a2,2,0,0,0,.34-.51,3.29,3.29,0,0,0,.25-.67,2.62,2.62,0,0,0,.09-.67.83.83,0,0,0-.14-.5,2.49,2.49,0,0,0-.82-.57,5.93,5.93,0,0,0-1.15-.37,10.67,10.67,0,0,0-1.34-.2c-.47,0-.94-.06-1.4-.06s-.91,0-1.34,0-.81.08-1.15.13l-1.63-1.92L41.14,38l2.54,1-2.78,7c.57,0,1.11,0,1.61,0s1,0,1.44.09.9.12,1.33.21.85.2,1.27.32l.18,0h0l.84.23.86.21a5.14,5.14,0,0,0,.8.1,3.51,3.51,0,0,0,.77,0,2.71,2.71,0,0,0,.72-.23,2.23,2.23,0,0,0,.63-.44h0l.27-.28a1.42,1.42,0,0,1,.47-.33,1.52,1.52,0,0,1,.54-.12,1.37,1.37,0,0,1,.54.1,1.53,1.53,0,0,1,.81.79,1.41,1.41,0,0,1,.12.54,1.43,1.43,0,0,1-.1.54,1.48,1.48,0,0,1-.31.48l-.05.05a7.58,7.58,0,0,1-.93.83,7.31,7.31,0,0,1-.94.59,4.36,4.36,0,0,1-1.1.36,6.58,6.58,0,0,1-1.16.11c0,.11,0,.22,0,.35s0,.25,0,.37a3.7,3.7,0,0,1-.13.88,5.11,5.11,0,0,1-.3.8,4.77,4.77,0,0,1-.43.72,8.39,8.39,0,0,1-.53.66L46.07,56a1.42,1.42,0,0,1-.46.32,1.44,1.44,0,0,1-1.09,0A1.42,1.42,0,0,1,44,56Z" style="fill:#fff"/><path d="M51.3,48.49A1.41,1.41,0,0,1,51,48a1.47,1.47,0,0,1-.12-.54,1.34,1.34,0,0,1,.1-.54,1.49,1.49,0,0,1,.32-.48l.7-.73.3-.32c.19-.2.39-.42.6-.68a8.91,8.91,0,0,0,.57-.76,4.68,4.68,0,0,0,.41-.75,1.23,1.23,0,0,0,.12-.64.76.76,0,0,0-.23-.36,2.87,2.87,0,0,0-.8-.51,11.75,11.75,0,0,0-1.1-.44c-.38-.14-.76-.26-1.13-.37l-.91-.28.89-2.76a8.8,8.8,0,0,1,1.22.42c.44.18.88.39,1.32.62s.85.47,1.23.72a6.66,6.66,0,0,1,.94.73,4.23,4.23,0,0,1,1,1.41,3.88,3.88,0,0,1,.29,1.74,4.23,4.23,0,0,1-.52,1.72,4.71,4.71,0,0,1-.39.58c-.17.22-.34.43-.53.65l-.53.59-.4.42-.92,1-.06.06a1.47,1.47,0,0,1-.47.33,1.35,1.35,0,0,1-.54.12,1.52,1.52,0,0,1-.54-.1A1.42,1.42,0,0,1,51.3,48.49Zm9.33-3.26,0,2.48-2.45,0,0,2.43-2.5.05,0-2.49,2.45,0,0-2.43Z" style="fill:#fff"/><path d="M59.55,42.07,58.5,40.93l-1.09-1.16c-.36-.38-.72-.74-1.07-1.09s-.68-.66-1-.93l-1.71-1.51L52.32,35.1l-1-.85-.82-.65-.72-.53-.72-.5,1.29-2.67q1,.7,2,1.48t1.84,1.52q.86.74,1.58,1.41L57,35.44l1,1L59,37.46l1.11,1.13c.38.38.73.77,1.07,1.15Z" style="fill:#fff"/><path d="M60.9,31q.95.44,1.8.91l.77.44.77.47c.25.16.49.33.72.5a6,6,0,0,1,1.65,1.84,7.4,7.4,0,0,1,.68,1.57,9.57,9.57,0,0,1,.36,1.75,11.25,11.25,0,0,1,.05,1.85,14.16,14.16,0,0,1-.23,1.9A16,16,0,0,1,67,44.11L64.2,43.7c.15-.47.28-1,.39-1.47s.2-1,.25-1.54a13,13,0,0,0,.08-1.52,8.67,8.67,0,0,0-.11-1.41,5.31,5.31,0,0,0-.35-1.21,2.79,2.79,0,0,0-.62-.92,3.65,3.65,0,0,0-.67-.5,10,10,0,0,0-.89-.47q-.5-.23-1.08-.46l-1.26-.48Z" style="fill:#fff"/></svg>