<svg xmlns="http://www.w3.org/2000/svg" viewBox="0 0 100 100"><title>ticket-starred</title><path d="M8.16,58.71c5.89-1.85,8.26-4.29,8.46-8.36.21-4.3-2.23-7-8.42-9.24,0-5.21-.23-10.53.06-15.82.31-5.57,3.51-8.43,9-8.44q32.71-.06,65.43,0c5.48,0,8.66,2.87,9,8.5.31,5.28.07,10.6.07,15.8-5.86,2-8.42,4.69-8.48,8.73s2.6,7,8.44,8.8c0,5.33.28,10.8-.08,16.23s-3.57,8.22-9.23,8.23q-32.46.05-64.93,0c-6,0-9-3-9.35-9.22,0-.83,0-1.66,0-2.5C8.16,67.27,8.16,63.12,8.16,58.71Zm41.72,1.4c4.42,2,8.14,5,12.75,6.9C62,62,60.14,57.8,59.83,53.29L70.5,43.43,55.89,42,50,28.59,44.13,42,29.48,43.42,40,53.14c.26,2.77-.83,4.75-1.14,6.88s-1.35,4.36-1,7.33Z" style="fill:#030303"/></svg>