<svg xmlns="http://www.w3.org/2000/svg" viewBox="0 0 100 100"><title>ticket-remove</title><path d="M8.16,58.72c5.89-1.86,8.26-4.29,8.46-8.35.22-4.3-2.23-7.05-8.42-9.25,0-5.21-.23-10.52.06-15.81.3-5.58,3.5-8.44,9-8.45q32.71-.06,65.43,0c5.49,0,8.67,2.86,9,8.49.31,5.28.07,10.6.07,15.81-5.87,2-8.41,4.69-8.48,8.73s2.59,7,8.45,8.8c0,5.33.28,10.8-.08,16.23s-3.57,8.23-9.22,8.24q-32.46.05-64.93,0c-6,0-9-3-9.37-9.21,0-.66,0-1.33,0-2C8.16,67.62,8.16,63.3,8.16,58.72Zm56-.29-8.66-8.81,8.94-8.12a24.51,24.51,0,0,0-5.89-5.83l-9,8.81-8.12-8.93a24.47,24.47,0,0,0-5.81,5.88l8.79,9-8.93,8.1a24.49,24.49,0,0,0,5.9,5.84l9-8.8,8,8.77Z" style="fill:#030303"/></svg>