<svg xmlns="http://www.w3.org/2000/svg" viewBox="0 0 100 100"><title>tickets</title><path d="M91.83,31.82c-5.22,1-8.51,3.65-8.42,8.73s3.53,7.58,8.39,8.52c0,3.9.22,7.74,0,11.55-.42,6.06-3.61,8.93-9.74,8.95q-32,.06-64,0c-6.32,0-9.53-3-9.86-9.33-.19-3.65,0-7.31,0-11.1,4.75-1,8.25-3.42,8.41-8.49.18-5.42-3.6-7.81-8.4-9,0-3.84-.17-7.51,0-11.15.34-6.12,3.37-9.15,9.5-9.18q32.23-.15,64.45,0c6.35,0,9.35,3.15,9.63,9.59C92,24.37,91.83,27.87,91.83,31.82Z" style="fill:#030303"/><path d="M20.22,73.85H91a28.22,28.22,0,0,1-2.46,10.49c-1.71,4-5.76,5.25-11.14,3.95Q48.9,81.41,20.36,74.49Z" style="fill:#030303"/></svg>