<svg xmlns="http://www.w3.org/2000/svg" viewBox="0 0 100 100"><title>ticket-add</title><path d="M8.17,58.74c6-1.94,8.52-4.63,8.46-8.84s-2.43-6.67-8.42-8.76c0-5.2-.22-10.52.06-15.8.3-5.59,3.49-8.47,9-8.48q32.71-.06,65.43,0c5.5,0,8.69,2.84,9,8.46.32,5.28.07,10.6.07,15.82-6,2.11-8.71,5.06-8.47,9.22s2.73,6.57,8.45,8.31c0,5.32.27,10.79-.08,16.22s-3.56,8.26-9.19,8.27q-32.46.05-64.93,0c-6,0-9.13-3-9.36-9.18C8,69,8.17,64,8.17,58.74Zm38-25.36c-.69,4.32.25,8.32-.73,12.6h-12v7.91c4.16.81,8.34-.4,12.27.74.57,4.13-.27,8.11.55,12h8V54.42c4.38-.71,8.54.3,12.65-.69-.15-2.77.39-5.22-.49-8H54.12V33.38Z" style="fill:#030303"/></svg>