<svg xmlns="http://www.w3.org/2000/svg" viewBox="0 0 100 100"><title>timer</title><path d="M50.18,83.25a32.53,32.53,0,0,0,32.24-26,32.64,32.64,0,0,0-17-36.53c-4.39-2.27-4.38-2.29-2.69-6.7,1.31-3.42,1.34-3.49,4.89-1.78A41.7,41.7,0,1,1,8.42,47.41a40,40,0,0,1,3.38-14c.64-1.43,1.39-1.69,2.67-1,.59.31,1.2.57,1.79.86C20,35.14,20,35.15,18.7,39,10.61,62.51,28.94,84,50.18,83.25Z" style="fill:#090909"/><path d="M24.47,27.53Q38.18,36,51.88,44.5c1.94,1.21,3.22,6.61,2.21,8.88a1.73,1.73,0,0,1-.62.73c-1.3.81-7.86,0-8.88-1.23-6.83-8.28-14.35-16-20.69-24.69A4,4,0,0,0,24.47,27.53Z" style="fill:#090909"/><path d="M54.17,12.6C54.17,17,54.17,17,50,17s-4.18,0-4.18-4.36,0-4.36,4.18-4.36S54.17,8.25,54.17,12.6Z" style="fill:#090909"/><path d="M23.9,28.19c-.49-.11-1-.36-.63-.89s.83,0,1.21.23A4,4,0,0,1,23.9,28.19Z" style="fill:#090909"/></svg>