<svg xmlns="http://www.w3.org/2000/svg" viewBox="0 0 100 100"><title>upload-cloud</title><path d="M97,60c0,.56,0,1.12-.08,1.68a10.58,10.58,0,0,1-.3,2,6.87,6.87,0,0,1-.59,1.51c-3.47,7.82-9.3,12.15-18,12.28-4.74.07-9.49,0-14.23,0-1.67,0-2.3-.6-2.12-2.2,0-.31,0-.63,0-.95.07-5.51-.55-4.58,4.36-4.64,4.11-.05,8.23.14,12.33-.09A11.58,11.58,0,0,0,89.12,61a12.14,12.14,0,0,0-4.46-12.64A11.18,11.18,0,0,0,78,46.11c-3,0-3.91-1.37-4.41-4.14A22.82,22.82,0,0,0,64.16,26.7a23.89,23.89,0,0,0-33,5.06,18.57,18.57,0,0,0-1.75,2.49,8.36,8.36,0,0,1-5.8,4.25C14.59,40.33,9.6,48,11.2,56.87A15.58,15.58,0,0,0,25.71,69.59c3.47.2,7,.14,10.43.06,2,0,2.71.69,2.35,2.91a10.54,10.54,0,0,0,0,3c.14,1.18-.42,1.89-1.42,1.86-5.51-.19-11.1.78-16.53-.64a23.6,23.6,0,0,1-2.46-44.95,14.92,14.92,0,0,0,7.31-5.26c7.57-10,18.09-13.68,30.18-11.79C67.17,16.6,75.41,23.41,79.8,34.39a7.6,7.6,0,0,0,5.3,5.07c6.25,2.05,11.23,6.47,11.78,13.12l.05.66q.1,1.18.1,2.36Z" style="fill:#060606"/><path d="M46.37,71.69c0-3.79-.07-7.58,0-11.37,0-1.88-.73-2.52-2.51-2.46-2.37.08-4.74,0-7.1,0-1.8,0-1.8-.74-.86-2C38.5,52.51,41,49.1,43.6,45.69c1.7-2.27,3.36-4.58,5.11-6.82,1.6-2.06,1.69-2.07,3.36.14q6.15,8.1,12.21,16.28c.44.59,1.34,1.17,1,2-.48,1.12-1.65.54-2.51.59-1.42.09-2.84,0-4.26,0-4.16,0-4.19,0-4.2,4,0,6.79,0,13.58,0,20.37,0,3.35-.06,3.35-3.33,3.41-.47,0-.95,0-1.42,0-3.07-.07-3.11-.07-3.15-3.11C46.33,78.95,46.37,75.32,46.37,71.69Z" style="fill:#060606"/></svg>