<svg xmlns="http://www.w3.org/2000/svg" viewBox="0 0 100 100"><title>World</title><path d="M91.72,50c-.56,23.19-18.29,41.6-41.62,41.7-23,.1-42-17.74-41.82-41.85S27.34,8.29,50,8.35C73.38,8.41,91.08,26.75,91.72,50Zm-76.87,0c-.59,2.59,1.16,4.9,3.58,6.93a16.88,16.88,0,0,0,5.68,3c2.08.68,3.84,2,3.67,4.19-.35,4.24,2.06,7.62,2.88,11.42.87,4,3.16,5.84,6.63,7.1,2.08.76,3.69,1.07,5-1.29a8.68,8.68,0,0,1,3.13-3.15c2.45-1.39,3.29-3.65,3.95-6.07.83-3.07.24-4.17-2.92-5.1-2.59-.76-5-1.44-6.13-4.39-.65-1.69-2.71-1.85-4.32-2.08a23.4,23.4,0,0,0-5-.06c-2.54.19-4.64-.36-5.76-2.89a2.69,2.69,0,0,0-2-1.78c-2.35-.59-2.58-1.46-1.38-3.23,1.45-2.14,4.91-1.79,6.7.63.56.76.07,1.92,1,2.47.27-1,.55-1.9.81-2.86a8.29,8.29,0,0,0,.34-1.46c.34-4,2.06-6.46,6.38-6.89A12,12,0,0,0,43,41.83c2.27-1.71,2.57-3.14,1.28-5.58-2-3.7-5.24-4.52-8.66-2.11-.81.57-1.53,1.29-2.34,1.87s-1.64,1.38-2.68.74a3,3,0,0,1-1.31-3A9.61,9.61,0,0,1,32,28.5c1.56-1.69,3.21-3,5.51-1,.94.82,2.2.67,3.36.61,1.92-.1,2.33-.88,1.38-2.53-2.89-5-10.44-6-15.23-1.83C19.44,30.46,15.47,39,14.85,49.93ZM85,50.45a35.58,35.58,0,0,0-8.22-22.73c-4.58-5.6-7.4-5.07-10,1.79-.42,1.1-.38,2,.84,2.4,2.77.93,1.3,2,.16,3.08-1.68,1.61-3.67,3-5,4.9-3.4,5-5.11,10.83-7.79,16.2-1.68,3.36,0,5.82,3.63,6.54,1,.19,2,.12,3,.24C65.23,63.31,66,64,67,67.59c.84,2.86,1.95,5.65,2.65,8.55.53,2.19,1.37,1.76,2.6.71A35.37,35.37,0,0,0,85,50.45ZM50.29,15a18.79,18.79,0,0,0-2.75.29.74.74,0,0,0-.26,1.41c4.09,1.5,2.64,4.79,2.36,7.51-.17,1.63-.76,3.24-.36,4.89.28,1.13,1.12,1.75,2.21,1,4.24-2.89,8.68-5.57,10.73-10.71.53-1.35.6-2-1-2.53A36.19,36.19,0,0,0,50.29,15Z" style="fill:#060606"/></svg>