<svg xmlns="http://www.w3.org/2000/svg" viewBox="0 0 100 100"><title>Worldwide</title><path d="M84.49,50C85.1,64.7,73,79.18,55.63,79.21a29.14,29.14,0,1,1-.08-58.29C72.81,20.9,85.11,35.43,84.49,50Zm-24.3-.94c0,.83,0,1.66,0,2.49.14,4.41,1.38,5.41,5.53,3.82,3-1.14,5-.59,6.82,2,1.33,1.85,1.91,1.63,2.68-.52,3.71-10.47-2.06-22.68-12.49-26.38-.85-.3-2-1-2.43.46-.26.89-.35,2,1.1,2.27s1.53,1.22,1,2.18A21.1,21.1,0,0,0,60.18,49.09ZM34.57,50A31.42,31.42,0,0,0,36.1,57.6c.63,1.71,1,3.18,3.06,1,.8-.86,2.18-.52,3.25.14.55.34,1.08.7,1.63,1.06a2.63,2.63,0,0,0,.14-2.4c-1.3-2.93-.21-5.06,2.06-6.94a12.53,12.53,0,0,0,2.33-2.57c1.43-2.1,1.16-4.06-.59-5.2A3.72,3.72,0,0,0,42.49,44c-.5.85-.74,1.86-1.3,2.66a1.56,1.56,0,0,1-2.75-.49,7.41,7.41,0,0,1,.3-4.86c.64-1.68,2.05-1.23,3.34-1.35A6.56,6.56,0,0,0,44.34,39c.7-.37.88-1,.23-1.55-2.18-1.81-4.65-1.49-6.22.72C35.88,41.7,34.94,45.68,34.57,50ZM55,70.91c.5,0,1,0,1.49,0,4.42-.19,6.43-3.26,5-7.42A1.91,1.91,0,0,0,59.36,62c-1.48.09-3.42.89-4.35.24-3.66-2.59-6.55-.45-9.67.9-1.26.55-1.12,1-.53,2.17C47,69.5,50.62,70.83,55,70.91ZM52.41,29.44c-1.39.33-2.52.58-3.63.87-1.4.37-2,1.25-1.17,2.54.92,1.45.23,4.28,2.48,4.32,1.82,0,1.63-2.53,2.38-3.91a9.19,9.19,0,0,0,.9-2.28C53.59,30.06,53.26,29.38,52.41,29.44Z" style="fill:#060606"/><path d="M55.09,83.2c9.62.31,17.24-3.35,23.73-9.55,1.58-1.5,2.39-1.48,4,0,4.24,3.93,4.38,3.9.1,7.57-11.94,10.25-25.5,13.12-40.42,8.13C27.12,84.2,17.52,73.28,14.65,57.58A41.19,41.19,0,0,1,49.36,9c3-.37,5.9-1,8.91-.56.65.1,1.49,0,1.89.42,2,1.91-.28,4,.07,6,.16.91,0,2.09-1.44,2.13-.83,0-1.66-.07-2.49-.07a45.88,45.88,0,0,0-8.9,1c-14.64,3-24.75,17.32-25.12,30.91A33.57,33.57,0,0,0,46.64,82,27.83,27.83,0,0,0,55.09,83.2Z" style="fill:#060606"/></svg>